<?xml version="1.0" encoding="UTF-8" standalone="no"?>
<!DOCTYPE svg PUBLIC "-//W3C//DTD SVG 1.1//EN" "http://www.w3.org/Graphics/SVG/1.1/DTD/svg11.dtd">
<svg width="100%" height="100%" viewBox="0 0 1430 2581" version="1.1" xmlns="http://www.w3.org/2000/svg" xmlns:xlink="http://www.w3.org/1999/xlink" xml:space="preserve" xmlns:serif="http://www.serif.com/" style="fill-rule:evenodd;clip-rule:evenodd;stroke-linecap:round;stroke-linejoin:round;">
    <g transform="matrix(0.968407,0,0,0.996067,-503.066,-180.112)">
        <g id="Layer1">
            <path d="M1990.97,471.281C1990.97,313.918 1859.56,186.16 1697.7,186.16L817.906,186.16C656.048,186.16 524.641,313.918 524.641,471.281L524.641,2481.77C524.641,2639.13 656.048,2766.89 817.906,2766.89L1697.7,2766.89C1859.56,2766.89 1990.97,2639.13 1990.97,2481.77L1990.97,471.281Z" style="fill:rgb(31,67,139);"/>
        </g>
    </g>
    <g transform="matrix(0.968407,0,0,0.996067,-503.066,-180.112)">
        <g id="Layer11" serif:id="Layer1">
            <path d="M1259.76,899.735C1259.76,742.372 1224.37,186.16 1062.51,186.16L817.906,186.16C656.048,186.16 524.641,313.918 524.641,471.281L524.641,2481.77C530.837,2657.61 605.705,2659.42 792.759,2665.45L779.389,2419.82C941.246,2419.82 1210.52,2107.76 1210.52,1950.39L1259.76,899.735Z" style="fill:rgb(201,16,46);"/>
        </g>
    </g>
    <g id="Layer2">
        <g id="_2" serif:id="2" transform="matrix(0.469249,0.540677,0.74255,-0.644453,198.13,1026.54)">
            <path d="M-0.5,41.523L37.38,1.5L154.224,122.665L146.589,21.786L341.893,253.109L197.039,128.106L194.298,186.811L-0.5,41.523L-0.5,41.523Z" style="fill:white;stroke:black;stroke-width:1px;"/>
        </g>
        <g id="_21" serif:id="2" transform="matrix(0.469249,0.540677,0.74255,-0.644453,198.13,1026.54)">
            <path d="M-0.5,41.523L37.38,1.5L154.224,122.665L146.589,21.786L341.893,253.109L197.039,128.106L194.298,186.811L-0.5,41.523L-0.5,41.523Z" style="fill:white;stroke:black;stroke-width:1px;"/>
        </g>
    </g>
    <g id="Layer21" serif:id="Layer2" transform="matrix(0.78202,-0.623253,-0.623253,-0.78202,1013.31,2888.13)">
        <g id="_22" serif:id="2" transform="matrix(0.469249,0.540677,0.74255,-0.644453,425.54,1676.76)">
            <path d="M-0.5,41.523L37.38,1.5L154.224,122.665L146.589,21.786L341.893,253.109L197.039,128.106L194.298,186.811L-0.5,41.523L-0.5,41.523Z" style="fill:white;stroke:black;stroke-width:1px;"/>
        </g>
        <g id="_23" serif:id="2" transform="matrix(0.469249,0.540677,0.74255,-0.644453,425.54,1676.76)">
            <path d="M-0.5,41.523L37.38,1.5L154.224,122.665L146.589,21.786L341.893,253.109L197.039,128.106L194.298,186.811L-0.5,41.523L-0.5,41.523Z" style="fill:white;stroke:black;stroke-width:1px;"/>
        </g>
    </g>
    <g id="layer101" transform="matrix(1,0,0,1,-519.039,-183.344)">
        <path d="M801.156,2725.88C759.49,2720.03 728.301,2709.55 717.824,2698.1C706.372,2685.43 645.457,2651.56 634.248,2651.56C622.553,2651.56 568.947,2620.62 554.328,2605.27L547.505,2598.2L554.328,2577C563.83,2548.01 600.38,2475.4 621.334,2443.72C644.726,2408.88 662.513,2391.09 679.813,2385.24C697.6,2379.15 716.849,2359.17 751.693,2310.44C814.557,2222.23 866.213,2168.63 925.666,2129.64C935.656,2123.06 959.779,2110.15 979.272,2100.65C1019.96,2080.91 1037.75,2068.73 1046.28,2053.86C1055.05,2039 1057.24,2026.82 1059.92,1977.84C1062.85,1924.72 1067.48,1883.06 1077.22,1822.14C1090.14,1741.25 1090.63,1716.15 1080.88,1640.37C1073.81,1584.82 1071.62,1547.29 1072.84,1504.41C1074.3,1451.05 1077.95,1430.09 1098.42,1360.16C1111.58,1314.11 1114.5,1301.44 1115.48,1281.46L1116.45,1257.58L1100.62,1225.42C1082.1,1187.89 1059.68,1154.27 1048.23,1146.72C1034.58,1137.46 982.439,1126.74 885.706,1112.85C717.337,1088.97 646.675,1069.23 635.954,1043.16C633.03,1036.34 633.274,1032.93 636.685,1019.28C642.776,995.89 662.513,957.879 689.559,917.188C739.51,842.384 797.745,778.545 911.29,674.015C950.276,638.196 994.135,603.597 1010.22,596.043C1018.99,591.901 1028.25,581.911 1028.25,576.794C1028.25,571.677 1036.53,566.073 1047.25,564.367C1059.44,562.418 1068.69,554.134 1072.11,541.707C1078.2,519.534 1074.06,513.199 1042.87,496.386C1029.22,489.076 1014.12,478.355 1004.86,469.583C996.572,461.543 985.851,452.04 981.465,448.629C971.231,440.588 950.276,405.501 940.042,379.673C933.951,363.835 932.245,355.307 931.271,336.788C930.296,316.565 931.027,311.204 936.875,294.148C952.225,247.852 988.043,207.161 1026.79,192.298C1045.55,185.231 1073.81,187.668 1102.56,199.364C1132.78,211.547 1144.96,217.882 1157.39,228.359C1163.24,233.233 1174.2,240.299 1181.75,244.197C1206.36,256.624 1217.08,271.975 1256.07,351.895C1282.63,406.232 1291.4,427.917 1291.4,439.369C1291.4,447.654 1284.82,454.476 1268.98,462.517C1262.89,465.685 1257.05,470.314 1256.07,472.995C1253.39,481.279 1272.39,523.676 1281.9,530.742C1283.85,531.96 1293.35,535.128 1303.34,537.565C1349.88,549.017 1376.44,560.469 1388.87,574.601C1399.1,586.54 1405.92,607.008 1405.92,626.744C1405.92,651.841 1410.06,676.938 1421.76,723.234C1434.43,773.184 1439.3,804.617 1442.47,859.44C1445.15,904.761 1449.78,945.94 1457.09,991.017C1463.91,1034.63 1471.22,1100.18 1474.15,1146.96C1477.31,1196.42 1480.24,1217.87 1485.11,1230.29C1488.52,1238.82 1503.38,1306.07 1511.91,1350.42C1513.86,1360.41 1517.52,1377.95 1519.95,1389.4C1522.63,1400.85 1525.56,1422.05 1526.53,1436.43L1528.24,1462.5L1535.79,1466.4C1540.18,1468.59 1556.75,1483.7 1572.83,1500.02C1598.17,1525.36 1608.4,1538.28 1644.95,1591.64C1668.59,1625.75 1714.88,1693.25 1748.26,1741.25C1828.43,1857.47 1823.07,1847.73 1824.29,1880.38C1824.77,1895.49 1827.45,1916.68 1830.38,1928.62C1838.42,1961.52 1836.71,1967.12 1784.33,2075.31C1694.41,2261.22 1659.09,2347.96 1645.68,2416.68C1639.84,2445.91 1639.84,2487.34 1645.68,2506.59C1652.99,2530.71 1664.2,2549.23 1685.64,2571.4C1714.15,2601.13 1719.03,2604.05 1762.88,2616.48C1820.14,2632.8 1831.6,2639.87 1836.96,2663.99C1843.29,2691.28 1837.44,2703.46 1813.81,2712.24C1768.24,2729.53 1686.38,2728.8 1628.87,2711.26C1597.19,2701.27 1573.56,2697.86 1513.13,2694.2C1440.03,2689.57 1424.93,2685.19 1417.86,2666.91C1412.01,2651.56 1418.35,2611.6 1436.38,2547.76C1442.47,2526.57 1449.78,2497.57 1452.7,2483.44C1458.55,2453.47 1462.69,2444.21 1476.58,2431.05C1496.56,2412.05 1499.73,2400.59 1513.13,2299.47C1529.94,2173.01 1542.86,2134.52 1594.52,2057.03C1607.43,2037.54 1620.83,2015.85 1624.24,2008.79L1630.33,1995.87L1624.24,1982.47C1612.3,1956.64 1581.84,1923.02 1569.9,1923.02C1561.13,1923.02 1527.02,1936.66 1493.39,1953.72C1486.82,1956.89 1486.82,1956.89 1455.14,1915.95C1416.89,1866.73 1410.31,1859.67 1403.73,1859.67C1394.71,1859.67 1386.43,1875.75 1361.09,1943C1324.54,2040.46 1316.99,2052.16 1290.18,2052.16C1272.88,2052.16 1262.65,2060.44 1247.3,2086.51C1215.13,2141.83 1164.94,2192.75 1113.04,2223.45C1056.27,2256.83 865.239,2410.1 825.278,2454.2C810.415,2470.77 807.247,2479.05 811.146,2491.24C812.364,2495.62 814.801,2506.34 816.263,2515.11C823.329,2558.49 844.04,2586.26 893.016,2618.18C927.616,2640.84 936.875,2651.08 943.941,2674.47C948.57,2689.09 949.301,2694.93 947.596,2701.27C944.672,2712.24 935.169,2721.01 922.742,2724.66C907.392,2729.05 829.42,2730.02 801.156,2725.88ZM1033.12,1055.34C1033.12,1049.98 967.82,962.509 933.463,921.574L926.397,913.289L911.29,927.178C897.158,940.335 883.513,947.889 835.025,969.818L825.766,973.961L856.954,988.337C916.651,1015.87 1020.45,1057.29 1031.41,1058.02C1032.39,1058.02 1033.12,1056.81 1033.12,1055.34Z" style="fill:white;fill-rule:nonzero;"/>
    </g>
</svg>
